<svg xmlns="http://www.w3.org/2000/svg" xmlns:xlink="http://www.w3.org/1999/xlink" version="1.0" x="0" y="0" width="2400" height="533.6788572579541" viewBox="45.4886003112793 97.31287246704102 249.0227993774414 55.374251251220706" preserveAspectRatio="xMidYMid meet" color-interpolation-filters="sRGB"><g><defs><linearGradient id="92" x1="0%" y1="0%" x2="100%" y2="0%"><stop offset="0%" stop-color="#fa71cd"></stop> <stop offset="100%" stop-color="#9b59b6"></stop></linearGradient><linearGradient id="93" x1="0%" y1="0%" x2="100%" y2="0%"><stop offset="0%" stop-color="#f9d423"></stop> <stop offset="100%" stop-color="#f83600"></stop></linearGradient><linearGradient id="94" x1="0%" y1="0%" x2="100%" y2="0%"><stop offset="0%" stop-color="#0064d2"></stop> <stop offset="100%" stop-color="#1cb0f6"></stop></linearGradient><linearGradient id="95" x1="0%" y1="0%" x2="100%" y2="0%"><stop offset="0%" stop-color="#f00978"></stop> <stop offset="100%" stop-color="#3f51b1"></stop></linearGradient><linearGradient id="96" x1="0%" y1="0%" x2="100%" y2="0%"><stop offset="0%" stop-color="#7873f5"></stop> <stop offset="100%" stop-color="#ec77ab"></stop></linearGradient><linearGradient id="97" x1="0%" y1="0%" x2="100%" y2="0%"><stop offset="0%" stop-color="#f9d423"></stop> <stop offset="100%" stop-color="#e14fad"></stop></linearGradient><linearGradient id="98" x1="0%" y1="0%" x2="100%" y2="0%"><stop offset="0%" stop-color="#009efd"></stop> <stop offset="100%" stop-color="#2af598"></stop></linearGradient><linearGradient id="99" x1="0%" y1="0%" x2="100%" y2="0%"><stop offset="0%" stop-color="#ffcc00"></stop> <stop offset="100%" stop-color="#00b140"></stop></linearGradient><linearGradient id="100" x1="0%" y1="0%" x2="100%" y2="0%"><stop offset="0%" stop-color="#d51007"></stop> <stop offset="100%" stop-color="#ff8177"></stop></linearGradient><linearGradient id="102" x1="0%" y1="0%" x2="100%" y2="0%"><stop offset="0%" stop-color="#a2b6df"></stop> <stop offset="100%" stop-color="#0c3483"></stop></linearGradient><linearGradient id="103" x1="0%" y1="0%" x2="100%" y2="0%"><stop offset="0%" stop-color="#7ac5d8"></stop> <stop offset="100%" stop-color="#eea2a2"></stop></linearGradient><linearGradient id="104" x1="0%" y1="0%" x2="100%" y2="0%"><stop offset="0%" stop-color="#00ecbc"></stop> <stop offset="100%" stop-color="#007adf"></stop></linearGradient><linearGradient id="105" x1="0%" y1="0%" x2="100%" y2="0%"><stop offset="0%" stop-color="#b88746"></stop> <stop offset="100%" stop-color="#fdf5a6"></stop></linearGradient></defs><g fill="#0a0619" class="iconlinesvg-g iconlinesvg" transform="translate(47.92671060562134,105.75427436828613)"><g class="tp-name"><g transform="translate(0, 0.8052016676148632)"><g fill="#0a0619" transform="scale(1)"><path d="M30.68-24.08C30.68-32.12 25.00-36.37 15.83-36.37C7.58-36.37 2.05-32.27 2.05-26.74C2.05-13.68 23.77-18.39 23.77-9.94C23.77-7.02 20.75-5.12 16.44-5.12C11.47-5.12 8.55-7.68 8.55-11.83L1.54-11.83C1.54-3.33 7.53 0.51 16.60 0.51C24.89 0.51 30.68-3.64 30.68-9.94C30.68-22.95 8.76-19.00 8.76-26.64C8.76-29.71 12.50-30.79 15.88-30.79C20.54-30.79 23.77-28.17 23.77-24.08Z" transform="translate(-1.536710301650541, 36.368810472396135)"></path></g></g><g transform="translate(33, 0.8052016676148632)"><g fill="#0a0619" transform="scale(1)"><path d="M10.45-30.32L10.45-35.86L3.48-35.86L3.48-30.32ZM3.48 0L10.40 0L10.40-25.61L3.48-25.61Z" transform="translate(-3.4832100170745597, 36.368810472396135)"></path></g></g><g transform="translate(43, 0)"><g mask="url(#9ff2d275-a93c-4761-b309-a043b0ed7890)"><g class="imagesvg"><g><rect fill="#0a0619" fill-opacity="0" stroke-width="2" x="0" y="0" width="36.776271537227714" height="38.49145057484271" class="image-rect"></rect> <svg x="0" y="0" width="36.776271537227714" height="38.49145057484271" filtersec="colorsb280168595" class="image-svg-svg primary" style="overflow: visible;"><svg xmlns="http://www.w3.org/2000/svg" viewBox="0 0 152.8699951171875 160"><g><g fill-rule="evenodd"><path fill="#5e4c42" d="M0 33.04h48.87L24.73 75.36 0 33.04z"></path><path fill="#799283" d="M24.73 75.36H73.6L48.87 33.04 24.73 75.36z"></path><path fill="#5e4c42" d="M24.73 75.36H73.6l-24.14 42.32-24.73-42.32z"></path><path fill="#799283" d="M49.46 117.68h48.87L73.6 75.36l-24.14 42.32z"></path><path fill="#5e4c42" d="M49.46 117.68h48.87L74.19 160l-24.73-42.32z"></path><path fill="#799283" d="M152.87 10.56H104l24.14 42.32 24.73-42.32z"></path><path fill="#5e4c42" d="M123.06 75.36H73.6l25.31-42.32 24.15 42.32z"></path><path fill="#799283" d="M123.06 75.36H73.6l24.73 42.32 24.73-42.32z"></path><path fill="#5e4c42" d="M99.83 20.18h-23.3L88.32 0l11.51 20.18z"></path></g></g></svg></svg> </g></g><rect v-gra="id" width="48.77627182006836" height="50.491451263427734" transform="translate(-6, -6)" style="pointer-events:none;" fill="url(#jXAqaT3dS4HZUcfq3WyhJ)"></rect></g></g><g transform="translate(83, 0.8052016676148632)"><g fill="#0a0619" transform="scale(1)"><path d="M29.61-29.15L29.61-35.86L3.07-35.86L3.07-29.15ZM29.61-14.75L29.61-21.10L3.07-21.10L3.07-14.75ZM3.07 0L29.61 0L29.61-6.76L3.07-6.76Z" transform="translate(-3.073420603301082, 36.368810472396135)"></path></g></g><g transform="translate(113, 0.8052016676148632)"><g fill="#0a0619" transform="scale(1)"><path d="M27.71 0L34.47 0L34.47-35.86L27.87-35.86L27.87-11.17L27.61-11.17L10.30-35.86L3.18-35.86ZM3.48 0L10.19 0L10.19-17.57L3.48-27.15Z" transform="translate(-3.1758679567444514, 36.368810472396135)"></path></g></g><g transform="translate(148, 0.8052016676148632)"><g fill="#0a0619" transform="scale(1)"><path d="M0.36-35.86L0.36-29.15L28.84-29.15L28.84-35.86ZM11.17-24.59L11.17 0L18.08 0L18.08-24.59Z" transform="translate(-0.3585657370517929, 36.368810472396135)"></path></g></g><g transform="translate(180, 0.8052016676148632)"><g fill="#0a0619" transform="scale(1)"><path d="M19.41-15.83L8.20-35.86L0.26-35.86L12.50-14.34L12.50 0L19.41 0ZM21.72-19.31L31.96-35.86L24.13-35.86L18.03-25.36Z" transform="translate(-0.2561183836084235, 36.368810472396135)"></path></g></g><g transform="translate(215, 0.8052016676148632)"><g fill="#0a0619" transform="scale(1)"><path d="M15.88-30.79C20.54-30.79 23.77-28.17 23.77-24.08L30.68-24.08C30.68-32.12 25.00-36.37 15.83-36.37ZM2.05-26.74C2.05-13.68 23.77-18.39 23.77-9.94C23.77-7.02 20.75-5.12 16.44-5.12C11.47-5.12 8.55-7.68 8.55-11.83L1.54-11.83C1.54-3.33 7.53 0.51 16.60 0.51C24.89 0.51 30.68-3.64 30.68-9.94C30.68-22.95 8.76-19.00 8.76-26.64Z" transform="translate(-1.536710301650541, 36.368810472396135)"></path></g></g></g> </g><defs v-gra="od"></defs><defs v-gra="id"><filter id="07a3ea38-ea9d-4fc4-b85a-f13abe88b4b2" filterUnits="userSpaceOnUse"><feColorMatrix type="matrix" values="0 0 0 0 0.99609375  0 0 0 0 0.99609375  0 0 0 0 0.99609375  0 0 0 1 0"></feColorMatrix></filter><linearGradient x1="0" y1="1" x2="0" y2="0" id="jXAqaT3dS4HZUcfq3WyhJ"><stop offset="0%" stop-color="#4cf37b"></stop><stop offset="50%" stop-color="#2340fe"></stop><stop offset="100%" stop-color="#f001ff"></stop></linearGradient><filter id="42443b3f1de60f6b6fd3b6a9844b4764" filterUnits="objectBoundingBox"><feColorMatrix type="matrix" values="0 0 0 0 0.99609375  0 0 0 0 0.99609375  0 0 0 0 0.99609375  0 0 0 1 0"></feColorMatrix></filter></defs><mask v-gra="im" id="9ff2d275-a93c-4761-b309-a043b0ed7890"><g filter="url(#07a3ea38-ea9d-4fc4-b85a-f13abe88b4b2)"><g class="imagesvg"><g><rect fill="#0a0619" fill-opacity="0" stroke-width="2" x="0" y="0" width="36.776271537227714" height="38.49145057484271" class="image-rect"></rect> <svg x="0" y="0" width="36.776271537227714" height="38.49145057484271" filtersec="colorsb280168595" class="image-svg-svg primary" style="overflow: visible;"><svg xmlns="http://www.w3.org/2000/svg" viewBox="0 0 152.8699951171875 160"><g><g fill-rule="evenodd"><path fill="#5e4c42" d="M0 33.04h48.87L24.73 75.36 0 33.04z"></path><path fill="#799283" d="M24.73 75.36H73.6L48.87 33.04 24.73 75.36z"></path><path fill="#5e4c42" d="M24.73 75.36H73.6l-24.14 42.32-24.73-42.32z"></path><path fill="#799283" d="M49.46 117.68h48.87L73.6 75.36l-24.14 42.32z"></path><path fill="#5e4c42" d="M49.46 117.68h48.87L74.19 160l-24.73-42.32z"></path><path fill="#799283" d="M152.87 10.56H104l24.14 42.32 24.73-42.32z"></path><path fill="#5e4c42" d="M123.06 75.36H73.6l25.31-42.32 24.15 42.32z"></path><path fill="#799283" d="M123.06 75.36H73.6l24.73 42.32 24.73-42.32z"></path><path fill="#5e4c42" d="M99.83 20.18h-23.3L88.32 0l11.51 20.18z"></path></g></g></svg></svg> </g></g></g></mask></g></svg>